<svg width="50" height="50" viewBox="0 0 50 50" fill="none" xmlns="http://www.w3.org/2000/svg">
<path fill-rule="evenodd" clip-rule="evenodd" d="M25 0C11.1929 0 0 11.1929 0 25C0 38.8071 11.1929 50 25 50C38.8071 50 50 38.8071 50 25C50 11.1929 38.8071 0 25 0ZM19.5035 11.7472C20.9257 11.6825 21.3802 11.6667 25.0013 11.6667H24.9972C28.6194 11.6667 29.0722 11.6825 30.4944 11.7472C31.9139 11.8122 32.8834 12.0369 33.7334 12.3667C34.6112 12.707 35.3528 13.1625 36.0945 13.9042C36.8362 14.6453 37.2917 15.3892 37.6334 16.2662C37.9612 17.1139 38.1862 18.0828 38.2529 19.5023C38.3167 20.9245 38.3334 21.379 38.3334 25.0001C38.3334 28.6213 38.3167 29.0746 38.2529 30.4969C38.1862 31.9158 37.9612 32.8849 37.6334 33.733C37.2917 34.6097 36.8362 35.3536 36.0945 36.0947C35.3537 36.8364 34.6109 37.293 33.7342 37.6336C32.8859 37.9633 31.9158 38.1881 30.4964 38.2531C29.0742 38.3178 28.6211 38.3336 24.9997 38.3336C21.3788 38.3336 20.9246 38.3178 19.5024 38.2531C18.0832 38.1881 17.114 37.9633 16.2657 37.6336C15.3893 37.293 14.6454 36.8364 13.9045 36.0947C13.1632 35.3536 12.7076 34.6097 12.3668 33.7327C12.0373 32.8849 11.8126 31.916 11.7473 30.4966C11.6829 29.0743 11.6667 28.6213 11.6667 25.0001C11.6667 21.379 11.6834 20.9243 11.747 19.502C11.8109 18.0831 12.0359 17.1139 12.3665 16.2659C12.7081 15.3892 13.1637 14.6453 13.9054 13.9042C14.6465 13.1628 15.3904 12.7072 16.2674 12.3667C17.1151 12.0369 18.084 11.8122 19.5035 11.7472Z" fill="white"/>
<path fill-rule="evenodd" clip-rule="evenodd" d="M23.8049 14.0695C24.0371 14.0691 24.287 14.0692 24.5566 14.0694L25.001 14.0695C28.561 14.0695 28.983 14.0823 30.3888 14.1462C31.6888 14.2056 32.3944 14.4228 32.8644 14.6053C33.4866 14.847 33.9302 15.1359 34.3966 15.6026C34.8633 16.0692 35.1522 16.5137 35.3944 17.1359C35.5769 17.6054 35.7944 18.3109 35.8536 19.6109C35.9175 21.0165 35.9314 21.4387 35.9314 24.9971C35.9314 28.5555 35.9175 28.9777 35.8536 30.3833C35.7942 31.6833 35.5769 32.3889 35.3944 32.8583C35.1528 33.4805 34.8633 33.9236 34.3966 34.39C33.93 34.8567 33.4869 35.1455 32.8644 35.3872C32.3949 35.5706 31.6888 35.7872 30.3888 35.8467C28.9832 35.9106 28.561 35.9244 25.001 35.9244C21.4407 35.9244 21.0187 35.9106 19.6131 35.8467C18.3131 35.7867 17.6076 35.5694 17.1373 35.3869C16.5151 35.1453 16.0706 34.8564 15.6039 34.3897C15.1373 33.923 14.8484 33.4797 14.6062 32.8572C14.4236 32.3877 14.2061 31.6822 14.147 30.3822C14.0831 28.9766 14.0703 28.5544 14.0703 24.9938C14.0703 21.4332 14.0831 21.0132 14.147 19.6076C14.2064 18.3076 14.4236 17.602 14.6062 17.132C14.8478 16.5098 15.1373 16.0653 15.6039 15.5987C16.0706 15.132 16.5151 14.8431 17.1373 14.6009C17.6073 14.4176 18.3131 14.2009 19.6131 14.1412C20.8432 14.0856 21.3198 14.0689 23.8049 14.0662V14.0695ZM32.1183 16.2834C31.235 16.2834 30.5183 16.9992 30.5183 17.8829C30.5183 18.7662 31.235 19.4829 32.1183 19.4829C33.0017 19.4829 33.7183 18.7662 33.7183 17.8829C33.7183 16.9995 33.0017 16.2828 32.1183 16.2828V16.2834ZM18.1538 25.0002C18.1538 21.2188 21.2195 18.153 25.0008 18.1529C28.7823 18.1529 31.8473 21.2187 31.8473 25.0002C31.8473 28.7816 28.7825 31.8461 25.0011 31.8461C21.2197 31.8461 18.1538 28.7816 18.1538 25.0002Z" fill="white"/>
<path fill-rule="evenodd" clip-rule="evenodd" d="M25.0011 20.5557C27.4556 20.5557 29.4456 22.5454 29.4456 25.0002C29.4456 27.4546 27.4556 29.4446 25.0011 29.4446C22.5464 29.4446 20.5566 27.4546 20.5566 25.0002C20.5566 22.5454 22.5464 20.5557 25.0011 20.5557V20.5557Z" fill="white"/>
</svg>
