<svg width="50" height="50" viewBox="0 0 50 50" fill="none" xmlns="http://www.w3.org/2000/svg">
<path fill-rule="evenodd" clip-rule="evenodd" d="M25 0C11.1929 0 0 11.1929 0 25C0 38.8071 11.1929 50 25 50C38.8071 50 50 38.8071 50 25C50 11.1929 38.8071 0 25 0ZM12.0015 20.7061H17.667V37.7287H12.0015V20.7061ZM18.0405 15.4403C18.0037 13.7713 16.8101 12.5 14.872 12.5C12.9338 12.5 11.6667 13.7713 11.6667 15.4403C11.6667 17.0748 12.8964 18.3827 14.7984 18.3827H14.8347C16.8101 18.3827 18.0405 17.0748 18.0405 15.4403ZM31.5762 20.3064C35.3044 20.3064 38.0994 22.7399 38.0994 27.9685L38.0991 37.7287H32.4338V28.6216C32.4338 26.3341 31.614 24.7732 29.563 24.7732C27.9978 24.7732 27.0655 25.8255 26.656 26.8418C26.5062 27.2061 26.4694 27.7136 26.4694 28.2223V37.7292H20.8032C20.8032 37.7292 20.8779 22.3039 20.8032 20.7065H26.4694V23.1177C27.2214 21.9586 28.5681 20.3064 31.5762 20.3064Z" fill="white"/>
</svg>
