<svg width="40" height="40" viewBox="0 0 40 40" fill="none" xmlns="http://www.w3.org/2000/svg">
<path fill-rule="evenodd" clip-rule="evenodd" d="M6.66667 13.3333C5.75 13.3333 5 12.5833 5 11.6667C5 10.75 5.75 10 6.66667 10H33.3333C34.25 10 35 10.75 35 11.6667C35 12.5833 34.25 13.3333 33.3333 13.3333H6.66667ZM14.0444 21.6H33.9556C34.64 21.6 35.2 20.88 35.2 20C35.2 19.12 34.64 18.4 33.9556 18.4H14.0444C13.36 18.4 12.8 19.12 12.8 20C12.8 20.88 13.36 21.6 14.0444 21.6ZM6.66667 30H33.3333C34.25 30 35 29.25 35 28.3333C35 27.4167 34.25 26.6667 33.3333 26.6667H6.66667C5.75 26.6667 5 27.4167 5 28.3333C5 29.25 5.75 30 6.66667 30Z" fill="#354D62"/>
</svg>
